<svg width="46" height="29" viewBox="0 0 46 29" fill="none" xmlns="http://www.w3.org/2000/svg">
<path d="M0 4C0 1.79086 1.79086 0 4 0H42C44.2091 0 46 1.79086 46 4V25C46 27.2091 44.2091 29 42 29H4C1.79086 29 0 27.2091 0 25V4Z" fill="#F4511F"/>
<path d="M17.1919 19H16.0089L11.2509 11.785V19H10.0679V9.926H11.2509L16.0089 17.128V9.926H17.1919V19ZM25.7085 15.165C25.7085 15.3903 25.6955 15.6287 25.6695 15.88H19.9755C20.0189 16.582 20.2572 17.1323 20.6905 17.531C21.1325 17.921 21.6655 18.116 22.2895 18.116C22.8009 18.116 23.2255 17.999 23.5635 17.765C23.9102 17.5223 24.1529 17.2017 24.2915 16.803H25.5655C25.3749 17.4877 24.9935 18.0467 24.4215 18.48C23.8495 18.9047 23.1389 19.117 22.2895 19.117C21.6135 19.117 21.0069 18.9653 20.4695 18.662C19.9409 18.3587 19.5249 17.9297 19.2215 17.375C18.9182 16.8117 18.7665 16.1617 18.7665 15.425C18.7665 14.6883 18.9139 14.0427 19.2085 13.488C19.5032 12.9333 19.9149 12.5087 20.4435 12.214C20.9809 11.9107 21.5962 11.759 22.2895 11.759C22.9655 11.759 23.5635 11.9063 24.0835 12.201C24.6035 12.4957 25.0022 12.903 25.2795 13.423C25.5655 13.9343 25.7085 14.515 25.7085 15.165ZM24.4865 14.918C24.4865 14.4673 24.3869 14.0817 24.1875 13.761C23.9882 13.4317 23.7152 13.1847 23.3685 13.02C23.0305 12.8467 22.6535 12.76 22.2375 12.76C21.6395 12.76 21.1282 12.9507 20.7035 13.332C20.2875 13.7133 20.0492 14.242 19.9885 14.918H24.4865ZM36.76 11.876L34.537 19H33.315L31.599 13.345L29.883 19H28.661L26.425 11.876H27.634L29.272 17.856L31.04 11.876H32.249L33.978 17.869L35.59 11.876H36.76Z" fill="white"/>
</svg>
